<?xml version="1.0" standalone="no"?><!DOCTYPE svg PUBLIC "-//W3C//DTD SVG 1.1//EN" "http://www.w3.org/Graphics/SVG/1.1/DTD/svg11.dtd"><svg t="1579515746700" class="icon" viewBox="0 0 1024 1024" version="1.1" xmlns="http://www.w3.org/2000/svg" p-id="1329" xmlns:xlink="http://www.w3.org/1999/xlink" width="200" height="200"><defs><style type="text/css"></style></defs><path d="M926.74 114.64c-0.04-0.42-0.12-0.83-0.21-1.24-0.04-0.25-0.12-0.5-0.21-0.79-0.08-0.5-0.25-0.95-0.42-1.41-0.95-2.91-2.57-5.69-4.9-8.01-0.25-0.25-0.5-0.5-0.79-0.71-0.37-0.37-0.71-0.71-1.12-1-1.45-1.16-3.03-2.12-4.69-2.78-0.41-0.21-0.83-0.37-1.24-0.5-0.66-0.25-1.37-0.46-2.07-0.62-0.5-0.12-1-0.21-1.49-0.29-0.54-0.12-1.12-0.17-1.66-0.21-0.58-0.08-1.12-0.08-1.7-0.08-0.71 0-1.41 0.04-2.12 0.12-0.75 0.08-1.45 0.17-2.16 0.33-0.75 0.17-1.45 0.33-2.12 0.58-0.71 0.21-1.41 0.5-2.08 0.79-0.37 0.12-0.79 0.33-1.16 0.5l-787.32 352.3a20.62 20.62 0 0 0-12.2 17.26 20.705 20.705 0 0 0 9.3 19.01L357.2 652.52l33.57 228.21c1.16 8.05 6.97 14.69 14.82 16.93 1.87 0.54 3.78 0.79 5.69 0.79 6.02 0 11.83-2.57 15.85-7.3L532.12 767.4l238 156.21c3.44 2.24 7.39 3.4 11.37 3.4 2.86 0 5.73-0.58 8.38-1.78 6.47-2.82 11-8.76 12.12-15.73l124.62-787.75c0.04-0.33 0.12-0.71 0.17-1.08 0.08-0.42 0.12-0.87 0.12-1.33 0.18-1.55 0.09-3.13-0.16-4.7z m-116.78 68.93L373.67 613.76 160.82 474.03l649.14-290.46zM425.13 829.31L403.6 682.98l93.58 61.46-72.05 84.87z m340.89 41.96l-225.76-148.2c-0.58-0.37-1.12-0.75-1.7-1.08L409.2 637.08 875.91 176.8 766.02 871.27z" p-id="1330" fill="#ffffff"></path></svg>